<svg preserveAspectRatio="xMidYMid meet" viewBox="21.10386965376782 0.64 294.17515274949085 233.6" xmlns="http://www.w3.org/2000/svg" version="1.0" style="max-height: 500px" width="294.17515274949085" height="233.6">

<g stroke="none" fill="#000000" transform="translate(0.000000,320.000000) scale(0.100000,-0.100000)">
<path d="M1817 3041 c-32 -11 -74 -32 -94 -47 -24 -18 -40 -24 -48 -18 -76 56&#xA;-119 73 -193 74 -68 0 -108 -17 -153 -67 -39 -44 -59 -91 -62 -149 l-2 -36&#xA;-65 6 c-54 5 -77 2 -135 -19 -66 -24 -71 -24 -80 -8 -23 40 -145 151 -191 172&#xA;-62 29 -136 25 -216 -11 -119 -55 -183 -211 -146 -356 16 -65 93 -141 171&#xA;-170 32 -12 63 -22 70 -22 9 0 17 -30 24 -87 6 -49 14 -95 18 -104 5 -13 -7&#xA;-18 -65 -28 -95 -15 -143 -35 -138 -58 3 -14 11 -17 37 -15 19 2 45 8 59 13&#xA;28 11 130 15 139 5 4 -3 -3 -16 -14 -29 -11 -12 -30 -41 -41 -63 -18 -36 -26&#xA;-42 -62 -47 -29 -4 -53 -17 -84 -45 -36 -33 -52 -40 -100 -46 -49 -7 -65 -14&#xA;-101 -47 -65 -60 -70 -135 -13 -196 30 -33 122 -64 204 -70 l71 -6 6 -123 c10&#xA;-213 60 -326 173 -395 71 -43 104 -54 214 -73 169 -29 350 -39 685 -39 611 -1&#xA;844 43 965 180 66 76 83 135 88 306 l4 147 72 0 c117 0 186 34 223 109 51 103&#xA;-48 226 -167 207 -35 -6 -40 -3 -57 24 -10 17 -37 40 -61 51 -24 12 -49 34&#xA;-58 50 -8 16 -28 41 -44 56 -38 33 -38 53 -2 55 63 3 147 -5 178 -18 46 -19&#xA;56 -18 52 8 -5 36 -61 61 -149 66 -44 3 -79 9 -79 14 0 6 7 35 16 65 9 30 14&#xA;72 12 92 l-3 38 56 12 c141 29 241 161 225 296 -21 172 -116 275 -256 275&#xA;-120 0 -193 -49 -297 -199 -2 -2 -36 6 -77 17 -43 13 -102 22 -140 22 l-66 0&#xA;-6 40 c-9 57 -62 139 -110 173 -53 37 -110 42 -187 18z m150 -71 c40 -24 80&#xA;-83 88 -130 6 -34 5 -36 -50 -64 -34 -18 -77 -53 -110 -89 l-54 -61 -41 28&#xA;c-55 36 -70 75 -70 180 0 82 1 85 29 106 75 52 153 64 208 30z m-364 -28 c38&#xA;-22 51 -35 49 -48 -2 -11 -4 -60 -5 -110 -2 -83 -4 -94 -31 -128 -15 -21 -39&#xA;-42 -53 -49 -21 -9 -26 -8 -36 8 -13 25 -87 98 -150 148 -41 33 -47 43 -47 75&#xA;0 46 29 96 72 123 47 29 130 21 201 -19z m1140 -43 c86 -24 150 -123 150 -234&#xA;0 -37 -6 -72 -16 -92 -25 -48 -84 -91 -144 -104 -47 -11 -59 -10 -90 5 -48 23&#xA;-68 7 -53 -44 26 -92 0 -248 -45 -268 -27 -13 -30 -23 -15 -53 10 -17 7 -19&#xA;-19 -19 -16 0 -37 -7 -46 -16 -26 -27 -1 -44 64 -44 65 0 101 -19 101 -55 0&#xA;-20 -7 -25 -52 -35 -112 -24 -778 -54 -778 -35 0 3 6 20 14 38 16 40 55 67 96&#xA;67 38 0 40 21 5 73 -14 20 -23 42 -20 47 10 16 -4 47 -24 53 -10 2 -20 14 -23&#xA;25 -5 18 -3 20 19 11 43 -16 63 -11 63 15 0 19 -10 27 -51 44 l-50 21 6 63&#xA;c17 164 90 294 193 345 72 35 188 42 282 18 118 -30 111 -31 149 25 56 84 111&#xA;129 181 151 36 11 60 10 103 -2z m-1963 -20 c55 -25 111 -77 156 -146 18 -29&#xA;40 -53 48 -53 8 0 30 9 48 19 51 30 160 46 222 32 111 -25 239 -142 264 -241&#xA;19 -73 35 -170 30 -175 -3 -3 -29 -18 -59 -33 -53 -27 -67 -45 -51 -70 7 -10&#xA;19 -8 56 9 53 23 63 21 46 -10 -7 -14 -21 -21 -41 -21 -22 0 -32 -6 -38 -22&#xA;-11 -30 -6 -38 25 -38 l24 0 -25 -40 c-44 -69 -47 -85 -21 -109 12 -11 26 -21&#xA;32 -21 16 0 69 -48 61 -56 -4 -4 -146 -3 -315 4 -321 12 -512 33 -512 58 0 51&#xA;66 101 119 89 19 -4 32 -1 40 9 16 19 6 36 -22 36 -29 0 -53 15 -38 24 6 4 11&#xA;16 11 27 0 13 -7 19 -23 19 -33 0 -46 48 -54 188 -6 122 -16 141 -53 107 -14&#xA;-13 -28 -16 -53 -11 -71 13 -128 70 -163 162 -16 42 -16 48 1 111 21 78 68&#xA;132 136 156 60 21 96 20 149 -4z m977 -274 l59 -36 -17 -67 c-10 -37 -18 -96&#xA;-18 -130 l-1 -64 -77 7 c-43 4 -81 9 -84 11 -4 2 -9 35 -13 73 -4 39 -11 84&#xA;-16 100 -8 28 -4 35 43 85 29 31 55 55 58 56 3 0 33 -16 66 -35z m13 -365 c24&#xA;-37 12 -50 -44 -50 -86 0 -116 9 -116 35 0 12 3 25 8 29 13 14 142 2 152 -14z&#xA;m59 -131 c14 -25 13 -28 -27 -76 -23 -27 -48 -70 -55 -94 -12 -43 -14 -44 -57&#xA;-47 -45 -3 -45 -2 -102 68 -32 38 -58 75 -58 81 0 6 14 30 31 55 l30 45 112&#xA;-3 c108 -3 112 -4 126 -29z m-1069 -230 c473 -53 1268 -57 1758 -7 l212 21 25&#xA;-23 c18 -17 22 -27 15 -40 -22 -41 -134 -61 -590 -102 -80 -7 -306 -12 -550&#xA;-12 -362 0 -441 3 -620 22 -325 36 -402 49 -422 73 -22 26 -22 38 -2 68 15 20&#xA;22 22 58 16 22 -4 75 -11 116 -16z m2195 -84 c18 -17 25 -35 25 -64 0 -65 -35&#xA;-87 -154 -98 -82 -6 -99 4 -94 58 2 26 11 37 42 54 21 12 48 34 58 48 27 37&#xA;88 38 123 2z m-2395 -45 c41 -41 50 -57 50 -85 0 -35 -1 -35 -42 -35 -53 0&#xA;-136 22 -170 44 -14 9 -32 30 -38 47 -11 26 -10 32 6 50 27 31 53 39 101 34&#xA;35 -4 52 -14 93 -55z m2105 -260 l0 -225 -30 -60 c-50 -100 -119 -140 -315&#xA;-182 -104 -22 -801 -39 -1025 -25 -324 20 -449 59 -545 168 -53 60 -62 94 -71&#xA;269 -5 88 -10 186 -13 219 l-4 58 46 -6 c26 -3 160 -16 297 -28 353 -31 876&#xA;-31 1261 1 150 12 294 26 320 31 85 14 79 32 79 -220z"/>
<path d="M2625 2798 c-91 -50 -160 -187 -98 -196 17 -3 26 7 46 51 32 70 74&#xA;102 127 93 31 -5 39 -3 43 13 8 33 -11 51 -56 51 -23 0 -51 -6 -62 -12z"/>
<path d="M1967 2479 c-47 -28 -40 -97 13 -119 28 -12 33 -11 55 10 59 55 0&#xA;149 -68 109z"/>
<path d="M2295 2434 c-33 -35 -34 -87 -3 -108 32 -22 64 -20 82 6 32 45 9 128&#xA;-35 128 -11 0 -31 -12 -44 -26z"/>
<path d="M2046 2315 c-21 -19 -26 -33 -26 -70 0 -65 22 -103 65 -111 65 -12&#xA;135 41 135 103 0 87 -111 137 -174 78z"/>
<path d="M2234 2085 c-28 -37 -81 -43 -138 -15 -51 24 -66 20 -66 -15 0 -31&#xA;42 -54 110 -62 59 -7 103 9 130 47 41 58 7 100 -36 45z"/>
<path d="M632 2798 c-19 -19 4 -48 41 -48 18 0 46 -9 64 -20 26 -16 36 -32 53&#xA;-89 23 -74 40 -97 66 -87 13 5 14 15 9 49 -9 54 -40 125 -68 155 -42 45 -137&#xA;68 -165 40z"/>
<path d="M1342 2454 c-15 -10 -22 -25 -22 -48 0 -62 48 -91 93 -55 33 25 35&#xA;66 7 97 -24 26 -47 28 -78 6z"/>
<path d="M1007 2432 c-17 -19 -23 -78 -9 -98 13 -21 54 -36 78 -30 45 12 55&#xA;86 17 129 -21 22 -65 22 -86 -1z"/>
<path d="M1215 2283 c-40 -21 -45 -30 -45 -85 0 -67 30 -101 93 -102 66 -1 87&#xA;22 90 98 2 52 -1 60 -26 82 -32 28 -69 30 -112 7z"/>
<path d="M1053 2104 c-15 -40 88 -113 160 -114 56 0 105 24 113 55 9 35 3 38&#xA;-42 19 -56 -24 -118 -14 -158 25 -35 34 -63 40 -73 15z"/>
<path d="M247 803 c-4 -3 -7 -123 -7 -266 l0 -259 118 3 c129 4 176 22 200 74&#xA;22 47 15 128 -13 170 -23 33 -24 38 -10 49 10 7 18 33 21 66 11 117 -55 170&#xA;-211 170 -51 0 -95 -3 -98 -7z m185 -99 c22 -7 35 -51 21 -73 -13 -21 -65 -35&#xA;-97 -27 -23 6 -26 11 -26 55 0 26 3 51 7 55 7 7 55 2 95 -10z m22 -226 c20&#xA;-28 20 -72 1 -88 -8 -7 -35 -15 -60 -18 l-45 -5 0 67 0 66 44 0 c35 0 48 -5&#xA;60 -22z"/>
<path d="M655 798 c-3 -7 -4 -126 -3 -263 l3 -250 50 0 50 0 -1 103 0 102 30&#xA;0 c30 0 32 -4 65 -95 19 -52 39 -99 45 -105 13 -13 83 -13 91 0 3 5 -3 31 -14&#xA;57 -40 98 -59 163 -49 169 28 18 68 90 68 123 0 52 -38 122 -80 146 -45 26&#xA;-246 36 -255 13z m201 -98 c20 -8 24 -17 24 -49 0 -48 -26 -71 -82 -71 l-38 0&#xA;0 71 0 71 36 -7 c20 -3 47 -10 60 -15z"/>
<path d="M1161 788 c-25 -63 -133 -478 -128 -492 8 -19 70 -22 85 -3 5 6 13&#xA;27 17 45 11 51 28 62 100 62 l63 0 19 -57 20 -58 51 -3 c30 -2 52 1 52 7 0 18&#xA;-27 112 -65 229 -20 62 -46 152 -58 200 l-22 87 -62 3 c-58 3 -64 1 -72 -20z&#xA;m113 -275 c7 -22 5 -23 -42 -23 l-49 0 14 53 c7 28 18 68 25 87 l11 35 17 -65&#xA;c9 -36 20 -75 24 -87z"/>
<path d="M1420 766 l0 -45 53 -3 52 -3 5 -215 5 -215 41 -3 c39 -3 42 -1 48&#xA;29 3 17 6 116 6 220 l0 188 48 3 47 3 0 40 0 40 -152 3 -153 3 0 -45z"/>
<path d="M1862 793 c-6 -10 -22 -63 -37 -118 -15 -55 -45 -160 -66 -233 -21&#xA;-73 -36 -139 -32 -148 4 -11 17 -14 46 -12 40 3 41 4 60 61 l19 58 71 -3 71&#xA;-3 17 -55 16 -55 52 -3 c28 -2 51 0 51 3 0 8 -20 79 -70 250 -21 72 -48 163&#xA;-60 203 l-21 72 -54 0 c-42 0 -56 -4 -63 -17z m65 -301 c-21 -2 -42 -1 -45 2&#xA;-6 7 11 87 29 131 11 30 12 29 34 -50 l22 -80 -40 -3z"/>
<path d="M2107 804 c-4 -4 -7 -25 -7 -46 l0 -38 48 0 c26 0 53 -5 60 -12 9 -9&#xA;12 -72 12 -220 l0 -208 45 0 45 0 0 215 0 215 28 0 c62 0 73 9 70 54 l-3 41&#xA;-146 3 c-80 1 -148 -1 -152 -4z"/>
<path d="M2473 794 c-3 -9 -3 -100 1 -203 8 -213 21 -259 86 -293 48 -26 157&#xA;-21 197 8 61 45 68 72 72 271 4 228 3 233 -49 233 -21 0 -42 -6 -47 -12 -4 -7&#xA;-6 -99 -4 -204 3 -184 2 -193 -18 -213 -14 -14 -34 -21 -60 -21 -67 0 -71 14&#xA;-71 231 0 103 -3 194 -6 203 -9 23 -92 22 -101 0z"/>
<path d="M2927 804 c-9 -9 -10 -486 -1 -508 4 -11 19 -16 50 -16 l44 0 -2 263&#xA;-3 262 -40 3 c-23 2 -44 0 -48 -4z"/>
</g>
</svg>